<svg width="960" height="720" viewBox="0 0 960 720" xmlns="http://www.w3.org/2000/svg" role="img" aria-labelledby="title desc">
  <title id="title">Smart farm monitoring project cover</title>
  <desc id="desc">A high contrast abstract dashboard scene for an AI monitoring project.</desc>
  <defs>
    <pattern id="dots" width="20" height="20" patternUnits="userSpaceOnUse">
      <circle cx="4" cy="4" r="2.2" fill="#ffffff" opacity=".18"/>
    </pattern>
    <linearGradient id="panel" x1="0" x2="1" y1="0" y2="1">
      <stop stop-color="#242424"/>
      <stop offset="1" stop-color="#f2efe7"/>
    </linearGradient>
  </defs>
  <rect width="960" height="720" fill="#111"/>
  <rect width="960" height="720" fill="url(#dots)"/>
  <path d="M-80 558 1010 70v128L-80 676Z" fill="#d50000"/>
  <path d="M-60 120 1000 412v58L-60 196Z" fill="#ffb4a8" opacity=".72"/>
  <g transform="translate(146 126) skewX(-8)">
    <rect x="0" y="0" width="658" height="430" fill="url(#panel)" stroke="#000" stroke-width="14"/>
    <rect x="42" y="42" width="238" height="142" fill="#d50000" stroke="#000" stroke-width="8"/>
    <rect x="324" y="42" width="288" height="78" fill="#111" stroke="#000" stroke-width="8"/>
    <rect x="324" y="148" width="118" height="172" fill="#fff" stroke="#000" stroke-width="8"/>
    <rect x="476" y="148" width="136" height="172" fill="#ffb4a8" stroke="#000" stroke-width="8"/>
    <path d="M58 318c70-104 128-96 180 0 58-146 132-118 224-8" fill="none" stroke="#00a99d" stroke-width="16" stroke-linecap="round"/>
    <circle cx="118" cy="116" r="34" fill="#fff" stroke="#000" stroke-width="8"/>
    <circle cx="196" cy="116" r="34" fill="#111" stroke="#000" stroke-width="8"/>
    <circle cx="548" cy="234" r="44" fill="#d50000" stroke="#000" stroke-width="8"/>
  </g>
  <path d="M118 604h732" stroke="#fff" stroke-width="16" stroke-dasharray="48 24"/>
</svg>
