<svg width="960" height="720" viewBox="0 0 960 720" xmlns="http://www.w3.org/2000/svg" role="img" aria-labelledby="title desc">
  <title id="title">Historical IF engine project cover</title>
  <desc id="desc">An abstract alternate-history branching map with red dossier styling.</desc>
  <defs>
    <pattern id="scan" width="18" height="18" patternUnits="userSpaceOnUse">
      <path d="M0 9h18" stroke="#fff" stroke-width="2" opacity=".12"/>
    </pattern>
  </defs>
  <rect width="960" height="720" fill="#151515"/>
  <rect width="960" height="720" fill="url(#scan)"/>
  <path d="M0 0h960v124L0 306Z" fill="#d50000"/>
  <path d="M0 660 960 418v302H0Z" fill="#ffb4a8"/>
  <g transform="translate(122 122)">
    <path d="M92 390c120-210 292-300 560-282" fill="none" stroke="#fff" stroke-width="18" stroke-linecap="round"/>
    <path d="M260 258c48 78 116 128 220 150M402 164c42 90 120 144 236 172" fill="none" stroke="#000" stroke-width="14" stroke-linecap="round"/>
    <circle cx="92" cy="390" r="54" fill="#111" stroke="#000" stroke-width="10"/>
    <circle cx="260" cy="258" r="54" fill="#f2efe7" stroke="#000" stroke-width="10"/>
    <circle cx="402" cy="164" r="54" fill="#d50000" stroke="#000" stroke-width="10"/>
    <circle cx="480" cy="408" r="54" fill="#ffb4a8" stroke="#000" stroke-width="10"/>
    <circle cx="638" cy="336" r="54" fill="#f2efe7" stroke="#000" stroke-width="10"/>
  </g>
  <g transform="translate(598 94) rotate(8)">
    <rect x="0" y="0" width="204" height="310" fill="#111" stroke="#000" stroke-width="12"/>
    <path d="M42 236c28-104 104-110 124 0" fill="#d50000" stroke="#fff" stroke-width="8"/>
    <circle cx="102" cy="104" r="54" fill="#ffb4a8" stroke="#fff" stroke-width="8"/>
  </g>
  <path d="M88 574h744" stroke="#000" stroke-width="14" stroke-dasharray="52 22"/>
</svg>
